<svg width="25" height="25" viewBox="0 0 25 25" fill="none" xmlns="http://www.w3.org/2000/svg">
<g clip-path="url(#clip0_54_522)">
<path d="M12.5 0.336426C10.1266 0.336426 7.80655 1.04021 5.83316 2.35879C3.85977 3.67737 2.3217 5.55151 1.41345 7.74423C0.505199 9.93694 0.267559 12.3497 0.730582 14.6775C1.1936 17.0053 2.33649 19.1435 4.01472 20.8217C5.69295 22.4999 7.83115 23.6428 10.1589 24.1059C12.4867 24.5689 14.8995 24.3312 17.0922 23.423C19.2849 22.5147 21.1591 20.9767 22.4776 19.0033C23.7962 17.0299 24.5 14.7098 24.5 12.3364C24.5 9.15383 23.2357 6.10158 20.9853 3.85114C18.7348 1.60071 15.6826 0.336426 12.5 0.336426V0.336426ZM13.5 12.7694L8.44701 15.9364L7.38601 14.2364L11.5 11.6614V6.33643H13.5V12.7694Z" fill="#4A5F58"/>
</g>
<defs>
<clipPath id="clip0_54_522">
<rect width="24" height="24" fill="white" transform="translate(0.5 0.336426)"/>
</clipPath>
</defs>
</svg>
