<svg width="31" height="30" viewBox="0 0 31 30" fill="none" xmlns="http://www.w3.org/2000/svg">
<g clip-path="url(#clip0_234_32)">
<path d="M15.5 18.7397C13.4289 18.7397 11.75 20.4187 11.75 22.4897V29.9897H19.25V22.4897C19.25 20.4187 17.5711 18.7397 15.5 18.7397Z" fill="#333333"/>
<path d="M21.75 22.4902V29.9902H26.75C28.8211 29.9902 30.5 28.3113 30.5 26.2402V14.839C30.5003 14.1896 30.2479 13.5656 29.7962 13.099L19.1738 1.61521C17.2995 -0.412718 14.1361 -0.53723 12.1082 1.33707C12.0119 1.42613 11.919 1.51888 11.83 1.61521L1.22627 13.0953C0.760918 13.5638 0.499824 14.1974 0.5 14.8578V26.2402C0.5 28.3113 2.17895 29.9902 4.25 29.9902H9.24998V22.4902C9.27336 19.0817 12.0253 16.2983 15.348 16.2181C18.7818 16.1353 21.7238 18.9661 21.75 22.4902Z" fill="#333333"/>
<path d="M15.5 18.7397C13.4289 18.7397 11.75 20.4187 11.75 22.4897V29.9897H19.25V22.4897C19.25 20.4187 17.5711 18.7397 15.5 18.7397Z" fill="#333333"/>
</g>
<defs>
<clipPath id="clip0_234_32">
<rect width="30" height="30" fill="white" transform="translate(0.5)"/>
</clipPath>
</defs>
</svg>
