<svg width="24" height="24" viewBox="0 0 24 24" fill="none" xmlns="http://www.w3.org/2000/svg">
<path d="M10.9572 12.3549C10.9106 12.3084 10.8737 12.2532 10.8485 12.1925C10.8233 12.1317 10.8103 12.0666 10.8103 12.0009C10.8103 11.9351 10.8233 11.87 10.8485 11.8092C10.8737 11.7485 10.9106 11.6933 10.9572 11.6469L15.5432 7.06186C15.8246 6.7806 15.9827 6.39907 15.9828 6.00121C15.9829 5.60335 15.8249 5.22175 15.5437 4.94036C15.2624 4.65896 14.8809 4.50083 14.483 4.50073C14.0852 4.50064 13.7036 4.6586 13.4222 4.93986L8.83617 9.52586C8.18094 10.1829 7.81299 11.0729 7.81299 12.0009C7.81299 12.9288 8.18094 13.8188 8.83617 14.4759L13.4222 19.0619C13.7036 19.3431 14.0852 19.5011 14.483 19.501C14.8809 19.5009 15.2624 19.3428 15.5437 19.0614C15.8249 18.78 15.9829 18.3984 15.9828 18.0005C15.9827 17.6026 15.8246 17.2211 15.5432 16.9399L10.9572 12.3549Z" fill="white"/>
</svg>
