<svg width="18" height="18" viewBox="0 0 18 18" fill="none" xmlns="http://www.w3.org/2000/svg">
<g id="fi-sr-quote-right" clip-path="url(#clip0_54_357)">
<path id="Vector" d="M12 3.00024H15C15.7956 3.00024 16.5587 3.31631 17.1213 3.87892C17.6839 4.44153 18 5.20459 18 6.00024V9.00024C18 9.39807 17.842 9.7796 17.5607 10.0609C17.2794 10.3422 16.8978 10.5002 16.5 10.5002H12.0675C12.2455 11.5477 12.7879 12.4984 13.599 13.1846C14.4101 13.8708 15.4376 14.2483 16.5 14.2502C16.6989 14.2502 16.8897 14.3293 17.0303 14.4699C17.171 14.6106 17.25 14.8013 17.25 15.0002C17.25 15.1992 17.171 15.3899 17.0303 15.5306C16.8897 15.6712 16.6989 15.7502 16.5 15.7502C14.9092 15.7485 13.3842 15.1157 12.2593 13.9909C11.1345 12.8661 10.5018 11.341 10.5 9.75024V4.50024C10.5 4.10242 10.658 3.72089 10.9393 3.43958C11.2206 3.15828 11.6022 3.00024 12 3.00024Z" fill="#EE9972"/>
<path id="Vector_2" d="M1.50008 3.00024H4.50007C5.29572 3.00024 6.05878 3.31631 6.62138 3.87892C7.18399 4.44153 7.50006 5.20459 7.50006 6.00024V9.00024C7.50006 9.39807 7.34203 9.7796 7.06072 10.0609C6.77942 10.3422 6.39789 10.5002 6.00007 10.5002H1.56758C1.74553 11.5477 2.28797 12.4984 3.09905 13.1846C3.91013 13.8708 4.93766 14.2483 6.00007 14.2502C6.19898 14.2502 6.38974 14.3293 6.53039 14.4699C6.67105 14.6106 6.75006 14.8013 6.75006 15.0002C6.75006 15.1992 6.67105 15.3899 6.53039 15.5306C6.38974 15.6712 6.19898 15.7502 6.00007 15.7502C4.40932 15.7485 2.88424 15.1157 1.75941 13.9909C0.634583 12.8661 0.00186968 11.341 8.29697e-05 9.75024V4.50024C8.29697e-05 4.10242 0.158118 3.72089 0.439422 3.43958C0.720726 3.15828 1.10225 3.00024 1.50008 3.00024Z" fill="#EE9972"/>
</g>
<defs>
<clipPath id="clip0_54_357">
<rect width="18" height="18" fill="white" transform="matrix(-1 0 0 1 18 0)"/>
</clipPath>
</defs>
</svg>
