<svg width="24" height="25" viewBox="0 0 24 25" fill="none" xmlns="http://www.w3.org/2000/svg">
<path d="M15.7501 10.025L11.1641 5.439C10.8827 5.15774 10.5011 4.99978 10.1033 4.99988C9.70543 4.99997 9.3239 5.15811 9.04264 5.4395C8.76138 5.7209 8.60342 6.1025 8.60352 6.50036C8.60361 6.89822 8.76175 7.27974 9.04314 7.561L13.6291 12.146C13.6757 12.1925 13.7126 12.2476 13.7378 12.3084C13.7631 12.3691 13.776 12.4342 13.776 12.5C13.776 12.5658 13.7631 12.6309 13.7378 12.6916C13.7126 12.7524 13.6757 12.8076 13.6291 12.854L9.04314 17.439C8.76175 17.7203 8.60361 18.1018 8.60352 18.4997C8.60342 18.8975 8.76138 19.2791 9.04264 19.5605C9.3239 19.8419 9.70543 20 10.1033 20.0001C10.5011 20.0002 10.8827 19.8423 11.1641 19.561L15.7501 14.975C16.4054 14.318 16.7733 13.4279 16.7733 12.5C16.7733 11.5721 16.4054 10.682 15.7501 10.025Z" fill="#374957"/>
</svg>
