<svg width="41" height="41" viewBox="0 0 41 41" fill="none" xmlns="http://www.w3.org/2000/svg">
<g clip-path="url(#clip0_54_454)">
<path d="M0 32.4584C0.00271259 34.723 0.903507 36.894 2.50479 38.4953C4.10608 40.0966 6.27711 40.9974 8.54167 41.0001H32.4583C34.7229 40.9974 36.8939 40.0966 38.4952 38.4953C40.0965 36.894 40.9973 34.723 41 32.4584V17.0834H0V32.4584ZM29.0417 24.7709C29.5485 24.7709 30.0439 24.9212 30.4653 25.2028C30.8867 25.4844 31.2152 25.8846 31.4091 26.3528C31.6031 26.821 31.6538 27.3363 31.5549 27.8334C31.4561 28.3304 31.212 28.787 30.8536 29.1454C30.4953 29.5038 30.0387 29.7478 29.5416 29.8467C29.0445 29.9456 28.5293 29.8948 28.061 29.7009C27.5928 29.5069 27.1926 29.1785 26.911 28.7571C26.6295 28.3357 26.4792 27.8402 26.4792 27.3334C26.4792 26.6538 26.7491 26.002 27.2297 25.5215C27.7103 25.0409 28.3621 24.7709 29.0417 24.7709ZM20.5 24.7709C21.0068 24.7709 21.5022 24.9212 21.9236 25.2028C22.345 25.4844 22.6735 25.8846 22.8674 26.3528C23.0614 26.821 23.1121 27.3363 23.0133 27.8334C22.9144 28.3304 22.6703 28.787 22.312 29.1454C21.9536 29.5038 21.497 29.7478 20.9999 29.8467C20.5028 29.9456 19.9876 29.8948 19.5194 29.7009C19.0511 29.5069 18.6509 29.1785 18.3694 28.7571C18.0878 28.3357 17.9375 27.8402 17.9375 27.3334C17.9375 26.6538 18.2075 26.002 18.688 25.5215C19.1686 25.0409 19.8204 24.7709 20.5 24.7709ZM11.9583 24.7709C12.4651 24.7709 12.9606 24.9212 13.382 25.2028C13.8034 25.4844 14.1318 25.8846 14.3258 26.3528C14.5197 26.821 14.5705 27.3363 14.4716 27.8334C14.3727 28.3304 14.1287 28.787 13.7703 29.1454C13.4119 29.5038 12.9553 29.7478 12.4583 29.8467C11.9612 29.9456 11.4459 29.8948 10.9777 29.7009C10.5095 29.5069 10.1093 29.1785 9.82769 28.7571C9.54612 28.3357 9.39583 27.8402 9.39583 27.3334C9.39583 26.6538 9.66581 26.002 10.1464 25.5215C10.6269 25.0409 11.2787 24.7709 11.9583 24.7709Z" fill="white"/>
<path d="M32.4583 3.41667H30.75V1.70833C30.75 1.25526 30.57 0.820734 30.2496 0.500359C29.9293 0.179985 29.4947 0 29.0417 0C28.5886 0 28.1541 0.179985 27.8337 0.500359C27.5133 0.820734 27.3333 1.25526 27.3333 1.70833V3.41667H13.6667V1.70833C13.6667 1.25526 13.4867 0.820734 13.1663 0.500359C12.8459 0.179985 12.4114 0 11.9583 0C11.5053 0 11.0707 0.179985 10.7504 0.500359C10.43 0.820734 10.25 1.25526 10.25 1.70833V3.41667H8.54167C6.27711 3.41938 4.10608 4.32017 2.50479 5.92146C0.903507 7.52274 0.00271259 9.69378 0 11.9583L0 13.6667H41V11.9583C40.9973 9.69378 40.0965 7.52274 38.4952 5.92146C36.8939 4.32017 34.7229 3.41938 32.4583 3.41667Z" fill="#F4CE14"/>
</g>
<defs>
<clipPath id="clip0_54_454">
<rect width="41" height="41" fill="white"/>
</clipPath>
</defs>
</svg>
