<svg width="33" height="33" viewBox="0 0 33 33" fill="none" xmlns="http://www.w3.org/2000/svg">
<g clip-path="url(#clip0_64_700)">
<path d="M31.5666 30.719L25.6226 32.5643C25.2848 32.6694 24.9192 32.6359 24.6062 32.4714C24.2931 32.3069 24.0582 32.0247 23.9532 31.687C23.8482 31.3493 23.8816 30.9837 24.0462 30.6706C24.2107 30.3576 24.4928 30.1227 24.8306 30.0177L26.4892 29.503L25.2652 25.903C25.0083 25.9361 24.7496 25.9539 24.4906 25.9563C23.036 25.9533 21.6223 25.4747 20.4651 24.5934C19.3079 23.712 18.4707 22.4765 18.0812 21.075L17.9119 20.575L19.2452 16.6217H30.6332L30.8999 17.431C31.3225 18.8668 31.2449 20.4036 30.6797 21.7895C30.1145 23.1754 29.0954 24.3282 27.7892 25.059L29.0306 28.7083L30.7639 28.175C31.1016 28.07 31.4672 28.1034 31.7803 28.2679C32.0933 28.4325 32.3282 28.7146 32.4332 29.0523C32.5382 29.39 32.5048 29.7556 32.3403 30.0687C32.1758 30.3818 31.8936 30.6166 31.5559 30.7217L31.5666 30.719ZM20.0412 13.9577H29.7306L28.4426 10.1337C28.1333 9.13707 27.4495 8.29926 26.5352 7.79645C25.6208 7.29365 24.5471 7.16503 23.5399 7.43767L18.8412 8.747C19.0319 8.98878 19.2061 9.24313 19.3626 9.50834C20.1046 10.8656 20.3449 12.4409 20.0412 13.9577V13.9577ZM14.5959 8.86967L9.45855 7.43767C8.45864 7.16185 7.39076 7.28415 6.4791 7.77889C5.56744 8.27363 4.88291 9.10233 4.56922 10.091L3.27055 13.9577H17.3252L17.3519 13.879C17.5058 13.3692 17.5563 12.8338 17.5006 12.3042C17.4448 11.7746 17.2839 11.2614 17.0272 10.7948C16.7705 10.3283 16.4232 9.91763 16.0057 9.58705C15.5882 9.25646 15.1089 9.01256 14.5959 8.86967V8.86967ZM2.07988 17.5003C1.67458 18.9336 1.76535 20.4617 2.33749 21.8369C2.90963 23.212 3.92957 24.3536 5.23188 25.0763L3.97322 28.7137L2.23322 28.1723C2.066 28.1198 1.89008 28.1007 1.71549 28.1162C1.5409 28.1317 1.37106 28.1814 1.21568 28.2624C1.06029 28.3435 0.922406 28.4545 0.809885 28.5888C0.697363 28.7232 0.612413 28.8785 0.559885 29.0457C0.507356 29.2129 0.488277 29.3888 0.503738 29.5634C0.519199 29.738 0.568896 29.9078 0.649993 30.0632C0.731089 30.2186 0.841997 30.3565 0.976383 30.469C1.11077 30.5815 1.266 30.6665 1.43322 30.719L7.37722 32.5643C7.71493 32.6694 8.08053 32.6359 8.39359 32.4714C8.70665 32.3069 8.94153 32.0247 9.04655 31.687C9.15158 31.3493 9.11815 30.9837 8.95361 30.6706C8.78908 30.3576 8.50693 30.1227 8.16922 30.0177L6.52122 29.5043L7.76788 25.9043C8.01513 25.9361 8.26397 25.9539 8.51322 25.9577C9.95477 25.9541 11.3563 25.4834 12.5078 24.6161C13.6593 23.7488 14.4986 22.5316 14.8999 21.147L16.4266 16.6243H2.37455L2.07988 17.5003ZM21.2372 5.82434C21.3946 5.90349 21.5662 5.95065 21.7419 5.9631C21.9177 5.97555 22.0942 5.95305 22.2612 5.89688C22.4282 5.84072 22.5824 5.75201 22.7149 5.63589C22.8474 5.51976 22.9556 5.37852 23.0332 5.22034L24.3666 2.55367C24.5246 2.23718 24.5505 1.87086 24.4385 1.53529C24.3264 1.19973 24.0857 0.922405 23.7692 0.764336C23.4527 0.606267 23.0864 0.580398 22.7508 0.69242C22.4153 0.804442 22.138 1.04518 21.9799 1.36167L20.6466 4.02834C20.5669 4.18495 20.519 4.35576 20.5057 4.53094C20.4923 4.70613 20.5136 4.88223 20.5685 5.04913C20.6234 5.21603 20.7107 5.37043 20.8255 5.50347C20.9403 5.63651 21.0802 5.74555 21.2372 5.82434V5.82434ZM9.97322 5.22034C10.1313 5.53771 10.409 5.7793 10.7451 5.89194C10.9116 5.94772 11.0874 5.97016 11.2626 5.95799C11.4377 5.94582 11.6087 5.89927 11.7659 5.821C11.923 5.74274 12.0632 5.63428 12.1785 5.50183C12.2937 5.36939 12.3817 5.21554 12.4375 5.04907C12.4933 4.88261 12.5157 4.70679 12.5035 4.53165C12.4914 4.35651 12.4448 4.18549 12.3666 4.02834L11.0332 1.36167C10.955 1.20496 10.8466 1.0652 10.7143 0.950369C10.582 0.835539 10.4284 0.747887 10.2623 0.69242C9.9267 0.580398 9.56038 0.606267 9.24388 0.764336C8.92739 0.922405 8.68666 1.19973 8.57463 1.53529C8.46261 1.87086 8.48848 2.23718 8.64655 2.55367L9.97322 5.22034ZM16.4999 0.624336C16.1463 0.624336 15.8071 0.764812 15.5571 1.01486C15.307 1.26491 15.1666 1.60405 15.1666 1.95767V4.62434C15.1666 4.97796 15.307 5.3171 15.5571 5.56715C15.8071 5.81719 16.1463 5.95767 16.4999 5.95767C16.8535 5.95767 17.1926 5.81719 17.4427 5.56715C17.6927 5.3171 17.8332 4.97796 17.8332 4.62434V1.95767C17.8332 1.60405 17.6927 1.26491 17.4427 1.01486C17.1926 0.764812 16.8535 0.624336 16.4999 0.624336V0.624336Z" fill="white"/>
</g>
<defs>
<clipPath id="clip0_64_700">
<rect width="32" height="32" fill="white" transform="translate(0.5 0.624512)"/>
</clipPath>
</defs>
</svg>
