<svg width="33" height="33" viewBox="0 0 33 33" fill="none" xmlns="http://www.w3.org/2000/svg">
<g clip-path="url(#clip0_187_145)">
<path d="M31.5666 30.97L25.6226 32.8153C25.2848 32.9203 24.9192 32.8869 24.6062 32.7224C24.2931 32.5578 24.0582 32.2757 23.9532 31.938C23.8482 31.6003 23.8816 31.2347 24.0462 30.9216C24.2107 30.6086 24.4928 30.3737 24.8306 30.2687L26.4892 29.754L25.2652 26.154C25.0083 26.187 24.7496 26.2049 24.4906 26.2073C23.036 26.2043 21.6223 25.7256 20.4651 24.8443C19.3079 23.963 18.4707 22.7274 18.0812 21.326L17.9119 20.826L19.2452 16.8726H30.6332L30.8999 17.682C31.3225 19.1178 31.2449 20.6546 30.6797 22.0405C30.1145 23.4264 29.0954 24.5792 27.7892 25.31L29.0306 28.9593L30.7639 28.426C31.1016 28.321 31.4672 28.3544 31.7803 28.5189C32.0933 28.6835 32.3282 28.9656 32.4332 29.3033C32.5382 29.641 32.5048 30.0066 32.3403 30.3197C32.1758 30.6327 31.8936 30.8676 31.5559 30.9727L31.5666 30.97ZM20.0412 14.2086H29.7306L28.4426 10.3846C28.1333 9.38805 27.4495 8.55024 26.5352 8.04743C25.6208 7.54462 24.5471 7.41601 23.5399 7.68865L18.8412 8.99798C19.0319 9.23976 19.2061 9.49411 19.3626 9.75931C20.1046 11.1166 20.3449 12.6919 20.0412 14.2086ZM14.5959 9.12065L9.45855 7.68865C8.45864 7.41283 7.39076 7.53513 6.4791 8.02987C5.56744 8.5246 4.88291 9.3533 4.56922 10.342L3.27055 14.2086H17.3252L17.3519 14.13C17.5058 13.6202 17.5563 13.0848 17.5006 12.5552C17.4448 12.0255 17.2839 11.5124 17.0272 11.0458C16.7705 10.5792 16.4232 10.1686 16.0057 9.83802C15.5882 9.50743 15.1089 9.26354 14.5959 9.12065ZM2.07988 17.7513C1.67458 19.1845 1.76535 20.7127 2.33749 22.0878C2.90963 23.463 3.92957 24.6045 5.23188 25.3273L3.97322 28.9646L2.23322 28.4233C2.066 28.3708 1.89008 28.3517 1.71549 28.3672C1.5409 28.3826 1.37106 28.4323 1.21568 28.5134C1.06029 28.5945 0.922406 28.7054 0.809885 28.8398C0.697363 28.9742 0.612413 29.1294 0.559885 29.2966C0.507356 29.4639 0.488277 29.6398 0.503738 29.8144C0.519199 29.989 0.568896 30.1588 0.649993 30.3142C0.731089 30.4696 0.841996 30.6075 0.976383 30.72C1.11077 30.8325 1.266 30.9175 1.43322 30.97L7.37722 32.8153C7.71493 32.9203 8.08053 32.8869 8.39359 32.7224C8.70665 32.5578 8.94153 32.2757 9.04655 31.938C9.15158 31.6003 9.11815 31.2347 8.95362 30.9216C8.78908 30.6086 8.50693 30.3737 8.16922 30.2687L6.52122 29.7553L7.76788 26.1553C8.01513 26.1871 8.26397 26.2049 8.51322 26.2086C9.95477 26.2051 11.3563 25.7344 12.5078 24.8671C13.6593 23.9997 14.4986 22.7826 14.8999 21.398L16.4266 16.8753H2.37455L2.07988 17.7513ZM21.2372 6.07531C21.3946 6.15446 21.5662 6.20163 21.7419 6.21408C21.9177 6.22653 22.0942 6.20402 22.2612 6.14786C22.4282 6.0917 22.5824 6.00299 22.7149 5.88686C22.8474 5.77074 22.9556 5.6295 23.0332 5.47131L24.3666 2.80465C24.5246 2.48815 24.5505 2.12183 24.4385 1.78627C24.3264 1.4507 24.0857 1.17338 23.7692 1.01531C23.4527 0.857244 23.0864 0.831375 22.7508 0.943397C22.4153 1.05542 22.138 1.29615 21.9799 1.61265L20.6466 4.27931C20.5669 4.43593 20.519 4.60674 20.5057 4.78192C20.4923 4.9571 20.5136 5.13321 20.5685 5.30011C20.6234 5.467 20.7107 5.62141 20.8255 5.75445C20.9403 5.88748 21.0802 5.99653 21.2372 6.07531ZM9.97322 5.47131C10.1313 5.78869 10.409 6.03027 10.7451 6.14292C10.9116 6.1987 11.0874 6.22114 11.2626 6.20897C11.4377 6.1968 11.6087 6.15025 11.7659 6.07198C11.923 5.99371 12.0632 5.88526 12.1785 5.75281C12.2937 5.62036 12.3817 5.46651 12.4375 5.30005C12.4933 5.13358 12.5157 4.95776 12.5035 4.78263C12.4914 4.60749 12.4448 4.43646 12.3666 4.27931L11.0332 1.61265C10.955 1.45594 10.8466 1.31618 10.7143 1.20135C10.582 1.08652 10.4284 0.998864 10.2623 0.943397C9.9267 0.831375 9.56038 0.857244 9.24389 1.01531C8.92739 1.17338 8.68666 1.4507 8.57463 1.78627C8.46261 2.12183 8.48848 2.48815 8.64655 2.80465L9.97322 5.47131ZM16.4999 0.875313C16.1463 0.875313 15.8071 1.01579 15.5571 1.26584C15.307 1.51589 15.1666 1.85502 15.1666 2.20865V4.87531C15.1666 5.22894 15.307 5.56807 15.5571 5.81812C15.8071 6.06817 16.1463 6.20865 16.4999 6.20865C16.8535 6.20865 17.1926 6.06817 17.4427 5.81812C17.6927 5.56807 17.8332 5.22894 17.8332 4.87531V2.20865C17.8332 1.85502 17.6927 1.51589 17.4427 1.26584C17.1926 1.01579 16.8535 0.875313 16.4999 0.875313Z" fill="#333333"/>
</g>
<defs>
<clipPath id="clip0_187_145">
<rect width="32" height="32" fill="white" transform="translate(0.5 0.875488)"/>
</clipPath>
</defs>
</svg>
