<svg width="24" height="25" viewBox="0 0 24 25" fill="none" xmlns="http://www.w3.org/2000/svg">
<g clip-path="url(#clip0_198_98)">
<path d="M5.61095 3.31395C7.50204 2.05037 9.72535 1.37591 11.9997 1.37585C15.0488 1.37922 17.9719 2.59194 20.1279 4.74793C22.284 6.90398 23.4967 9.82728 23.5 12.8764C23.4999 15.1507 22.8254 17.3739 21.5619 19.2649C20.2983 21.1561 18.5022 22.6301 16.4009 23.5005C14.2995 24.3709 11.9872 24.5986 9.75647 24.1549C7.52569 23.7112 5.47658 22.6159 3.86828 21.0076C2.25997 19.3993 1.1647 17.3502 0.720975 15.1194C0.277245 12.8886 0.504983 10.5763 1.37539 8.475C2.2458 6.37365 3.71978 4.57759 5.61095 3.31395Z" fill="#EDEFEE" stroke="#B9B9B9"/>
</g>
<defs>
<clipPath id="clip0_198_98">
<rect width="24" height="24" fill="white" transform="translate(0 0.875854)"/>
</clipPath>
</defs>
</svg>
