<svg width="41" height="41" viewBox="0 0 41 41" fill="none" xmlns="http://www.w3.org/2000/svg">
<g clip-path="url(#clip0_54_567)">
<path d="M40.5204 38.1039L38.6796 36.2631L35.7226 33.3112L40.4896 28.5442C41.1566 27.8762 41.1557 26.794 40.4877 26.127C40.3117 25.9513 40.0995 25.8161 39.8658 25.7308L24.5359 20.1692C22.7604 19.5275 20.8008 20.4466 20.1591 22.2221C19.8879 22.9725 19.8877 23.7942 20.1586 24.5448L25.7358 39.8747C25.9348 40.4235 26.4001 40.8327 26.9699 40.96C27.0917 40.9866 27.2161 40.9997 27.3407 40.9994C27.794 40.9993 28.2287 40.8191 28.5492 40.4986L33.311 35.7231L36.2629 38.6749L38.1037 40.5157C38.7827 41.1715 39.8647 41.1526 40.5205 40.4736C41.1602 39.8113 41.1602 38.7613 40.5205 38.0988L40.5204 38.1039Z" fill="#F4CE14"/>
<path d="M17.0921 34.185C7.65242 34.185 0 26.5326 0 17.093C0 7.65335 7.65242 0.000854492 17.0921 0.000854492C26.5317 0.000854492 34.1842 7.65327 34.1842 17.093C34.1842 18.0369 33.419 18.8022 32.475 18.8022C31.531 18.8022 30.7657 18.0369 30.7657 17.093C30.7657 9.5412 24.6438 3.4193 17.0921 3.4193C9.54026 3.4193 3.41844 9.5412 3.41844 17.093C3.41844 24.6448 9.54035 30.7667 17.0921 30.7667C18.0361 30.7667 18.8013 31.5319 18.8013 32.4759C18.8013 33.4198 18.036 34.185 17.0921 34.185Z" fill="white"/>
<path d="M13.8174 26.6982C13.5927 26.6983 13.3703 26.6542 13.1627 26.5683C7.93213 24.3958 5.45301 18.3945 7.62544 13.1638C9.79786 7.93316 15.7993 5.45412 21.0298 7.62655C23.5404 8.6693 25.5342 10.6662 26.5731 13.1783C26.9488 14.0443 26.5513 15.0509 25.6854 15.4265C24.8194 15.8022 23.8128 15.4047 23.4372 14.5388C23.4293 14.5207 23.4218 14.5025 23.4146 14.4842C21.9676 10.9965 17.9674 9.34222 14.4798 10.7892C10.9922 12.2361 9.33782 16.2364 10.7848 19.724C11.4777 21.3942 12.8042 22.7219 14.4738 23.4165C15.346 23.7774 15.7605 24.7771 15.3995 25.6494C15.1347 26.2893 14.5099 26.7062 13.8174 26.7051L13.8174 26.6982Z" fill="white"/>
</g>
<defs>
<clipPath id="clip0_54_567">
<rect width="41" height="41" fill="white"/>
</clipPath>
</defs>
</svg>
