<svg width="24" height="25" viewBox="0 0 24 25" fill="none" xmlns="http://www.w3.org/2000/svg">
<path d="M10.9569 12.854C10.9104 12.8076 10.8734 12.7524 10.8482 12.6916C10.823 12.6309 10.81 12.5658 10.81 12.5C10.81 12.4342 10.823 12.3691 10.8482 12.3084C10.8734 12.2476 10.9104 12.1925 10.9569 12.146L15.5429 7.561C15.8243 7.27974 15.9824 6.89822 15.9825 6.50036C15.9826 6.1025 15.8247 5.7209 15.5434 5.4395C15.2622 5.15811 14.8806 4.99997 14.4828 4.99988C14.0849 4.99978 13.7033 5.15774 13.4219 5.439L8.83593 10.025C8.1807 10.682 7.81274 11.5721 7.81274 12.5C7.81274 13.4279 8.1807 14.318 8.83593 14.975L13.4219 19.561C13.7033 19.8423 14.0849 20.0002 14.4828 20.0001C14.8806 20 15.2622 19.8419 15.5434 19.5605C15.8247 19.2791 15.9826 18.8975 15.9825 18.4997C15.9824 18.1018 15.8243 17.7203 15.5429 17.439L10.9569 12.854Z" fill="#374957"/>
</svg>
