<svg width="24" height="25" viewBox="0 0 24 25" fill="none" xmlns="http://www.w3.org/2000/svg">
<g clip-path="url(#clip0_67_1598)">
<path d="M5.61095 2.5631C7.50204 1.29951 9.72535 0.625052 11.9997 0.625C15.0488 0.62837 17.9719 1.84108 20.1279 3.99707C22.284 6.15313 23.4967 9.07642 23.5 12.1255C23.4999 14.3998 22.8254 16.623 21.5619 18.5141C20.2983 20.4052 18.5022 21.8792 16.4009 22.7496C14.2995 23.62 11.9872 23.8478 9.75647 23.404C7.52569 22.9603 5.47658 21.865 3.86828 20.2567C2.25997 18.6484 1.1647 16.5993 0.720975 14.3685C0.277245 12.1378 0.504983 9.82549 1.37539 7.72414C2.2458 5.62279 3.71978 3.82674 5.61095 2.5631Z" fill="#48742C" stroke="#B9B9B9"/>
</g>
<defs>
<clipPath id="clip0_67_1598">
<rect width="24" height="24" fill="white" transform="translate(0 0.125)"/>
</clipPath>
</defs>
</svg>
